<svg xmlns="http://www.w3.org/2000/svg" version="1.1" xmlns:xlink="http://www.w3.org/1999/xlink" xmlns:svgjs="http://svgjs.dev/svgjs" width="1500" height="1500" viewBox="0 0 1500 1500"><rect width="1500" height="1500" fill="#ffffff"></rect><g transform="matrix(0.6666666666666666,0,0,0.6666666666666666,250.51338069079816,148.1543859649123)"><svg viewBox="0 0 205 247" data-background-color="#ffffff" preserveAspectRatio="xMidYMid meet" height="1807" width="1500" xmlns="http://www.w3.org/2000/svg" xmlns:xlink="http://www.w3.org/1999/xlink"><g id="tight-bounds" transform="matrix(1,0,0,1,-0.10524304161361897,-0.09999999999999432)"><svg viewBox="0 0 205.21048608322724 247.2" height="247.2" width="205.21048608322724"><g><svg viewBox="0 0 395.52 476.45003852457313" height="247.2" width="205.21048608322724"><g transform="matrix(1,0,0,1,0,296.4514095179086)"><svg viewBox="0 0 395.52 179.99862900666454" height="179.99862900666454" width="395.52"><g id="textblocktransform"><svg viewBox="0 0 395.52 179.99862900666454" height="179.99862900666454" width="395.52" id="textblock"><g><svg viewBox="0 0 395.52 179.99862900666454" height="179.99862900666454" width="395.52"><g transform="matrix(1,0,0,1,0,0)"><svg width="395.52" viewBox="3.0299999999999994 -35.01 76.92 35.01" height="179.99862900666454" data-palette-color="#ee3e38"><path d="M38.04-31.81L38.04 0 31.69 0 31.69-8.59 9.38-8.59 9.38 0 3.03 0 3.03-17.5Q3.03-21.34 4.35-24.56 5.66-27.78 8.01-30.1 10.35-32.42 13.55-33.72 16.75-35.01 20.53-35.01L20.53-35.01 34.84-35.01Q35.5-35.01 36.08-34.77 36.67-34.52 37.11-34.08 37.55-33.64 37.79-33.06 38.04-32.47 38.04-31.81L38.04-31.81ZM9.38-17.5L9.38-14.94 31.69-14.94 31.69-28.66 20.53-28.66Q20.24-28.66 19.3-28.58 18.36-28.49 17.13-28.15 15.89-27.81 14.53-27.1 13.16-26.39 12.01-25.15 10.86-23.9 10.12-22.03 9.38-20.17 9.38-17.5L9.38-17.5ZM79.95-17.5L79.95-3.2Q79.95-2.51 79.71-1.93 79.47-1.34 79.04-0.92 78.61-0.49 78.02-0.24 77.44 0 76.76 0L76.76 0 53.85 0Q52.98 0 51.96-0.21 50.95-0.42 49.96-0.85 48.97-1.29 48.07-1.99 47.17-2.69 46.47-3.67 45.77-4.66 45.36-5.97 44.94-7.28 44.94-8.91L44.94-8.91 44.94-26.1Q44.94-26.98 45.15-27.99 45.36-29 45.8-29.99 46.24-30.98 46.95-31.88 47.65-32.79 48.64-33.48 49.63-34.18 50.93-34.59 52.22-35.01 53.85-35.01L53.85-35.01 79.66-35.01 79.66-28.66 53.85-28.66Q52.61-28.66 51.95-28 51.29-27.34 51.29-26.05L51.29-26.05 51.29-8.91Q51.29-7.69 51.96-7.02 52.63-6.35 53.85-6.35L53.85-6.35 73.61-6.35 73.61-14.31 56.71-14.31 56.71-20.7 76.76-20.7Q77.44-20.7 78.02-20.45 78.61-20.19 79.04-19.75 79.47-19.31 79.71-18.74 79.95-18.16 79.95-17.5L79.95-17.5Z" opacity="1" transform="matrix(1,0,0,1,0,0)" fill="#ee3e38" class="wordmark-text-0" data-fill-palette-color="primary" id="text-0"></path></svg></g></svg></g></svg></g></svg></g><g transform="matrix(1,0,0,1,92.02765158242305,0)"><svg viewBox="0 0 211.4646968351539 211.4646968351539" height="211.4646968351539" width="211.4646968351539"><g><svg></svg></g><g id="icon-0"><svg viewBox="0 0 211.4646968351539 211.4646968351539" height="211.4646968351539" width="211.4646968351539"><g><path d="M0 105.732c0-58.394 47.338-105.732 105.732-105.732 58.394 0 105.732 47.338 105.733 105.732 0 58.394-47.338 105.732-105.733 105.733-58.394 0-105.732-47.338-105.732-105.733zM105.732 195.232c49.429 0 89.5-40.07 89.5-89.5 0-49.429-40.07-89.5-89.5-89.5-49.429 0-89.5 40.07-89.5 89.5 0 49.429 40.07 89.5 89.5 89.5z" data-fill-palette-color="accent" fill="#ee3e38" stroke="transparent"></path></g><g transform="matrix(1,0,0,1,59.10709498163037,59.453690462765785)"><svg viewBox="0 0 93.25050687189315 92.55731590962232" height="92.55731590962232" width="93.25050687189315"><g><svg xmlns="http://www.w3.org/2000/svg" viewBox="3.997307201620339 3.900689134422517 42.216694067408085 41.9028702420354" x="0" y="0" height="92.55731590962232" width="93.25050687189315" class="icon-dxe-0" data-fill-palette-color="accent" id="dxe-0"><g data-name="Layer 14" fill="#ee3e38" data-fill-palette-color="accent"><path d="M45.905 27.52L27.295 9.7A1 1 0 0 0 27.077 9.54L16.827 4.021A1 1 0 0 0 15.644 4.194L4.29 15.55A1 1 0 0 0 4.096 16.69L9.773 28.517A1 1 0 0 0 9.987 28.812L27.651 45.529A1 1 0 0 0 29.04 45.517L45.914 28.957A1 1 0 0 0 45.905 27.52M28.326 43.415L11.496 27.485 6.206 16.463 16.532 6.135 26.01 11.237 43.777 28.252Z" fill="#ee3e38" data-fill-palette-color="accent"></path><path d="M15.722 12.418A3.208 3.208 0 1 0 18.93 15.626 3.21 3.21 0 0 0 15.722 12.418M15.722 16.834A1.208 1.208 0 1 1 16.93 15.626 1.21 1.21 0 0 1 15.722 16.834" fill="#ee3e38" data-fill-palette-color="accent"></path></g></svg></g></svg></g></svg></g></svg></g><g></g></svg></g><defs></defs></svg><rect width="205.21048608322724" height="247.2" fill="none" stroke="none" visibility="hidden"></rect></g></svg></g></svg>